<svg width="21" height="18" viewBox="0 0 21 18" fill="none" xmlns="http://www.w3.org/2000/svg">
<path d="M5.08001 5.09189C5.02249 4.78426 5.25853 4.5 5.57149 4.5H18.8688C19.1818 4.5 19.4179 4.78426 19.3603 5.0919L18.0515 12.0919C18.0073 12.3285 17.8007 12.5 17.56 12.5H6.88032C6.63962 12.5 6.43308 12.3285 6.38884 12.0919L5.08001 5.09189Z" stroke="#201D1B"/>
<ellipse cx="7.73112" cy="16" rx="1.12185" ry="1" stroke="#201D1B"/>
<ellipse cx="16.7078" cy="16" rx="1.12185" ry="1" stroke="#201D1B"/>
<path d="M4.36556 1L4.85705 0.908105L4.78074 0.5H4.36556V1ZM1 0.5C0.723858 0.5 0.5 0.723858 0.5 1C0.5 1.27614 0.723858 1.5 1 1.5V0.5ZM3.87408 1.0919L4.99594 7.0919L5.9789 6.9081L4.85705 0.908105L3.87408 1.0919ZM1 1.5H4.36556V0.5H1V1.5Z" fill="#201D1B"/>
</svg>
