<svg width="26" height="16" viewBox="0 0 26 16" fill="none" xmlns="http://www.w3.org/2000/svg">
<path d="M13.416 5.33333C13.3033 5.33689 13.195 5.38489 13.1153 5.46844L10.829 7.80622L9.42067 6.36622C9.02633 5.94489 8.38933 6.59556 8.801 6.99911L10.5196 8.75733C10.6903 8.93244 10.9677 8.93244 11.1393 8.75733L13.7349 6.10222C14.0209 5.81778 13.8103 5.33333 13.4169 5.33333H13.416ZM0.433333 8.88889H3.03333C3.2734 8.88889 3.46667 9.08711 3.46667 9.33333C3.46667 9.57956 3.2734 9.77778 3.03333 9.77778H0.433333C0.193267 9.77778 0 9.57956 0 9.33333C0 9.08711 0.193267 8.88889 0.433333 8.88889ZM0.433333 5.33333H3.03333C3.2734 5.33333 3.46667 5.53156 3.46667 5.77778C3.46667 6.024 3.2734 6.22222 3.03333 6.22222H0.433333C0.193267 6.22222 0 6.024 0 5.77778C0 5.53156 0.193267 5.33333 0.433333 5.33333ZM0.433333 1.77778H3.03333C3.2734 1.77778 3.46667 1.976 3.46667 2.22222C3.46667 2.46844 3.2734 2.66667 3.03333 2.66667H0.433333C0.193267 2.66667 0 2.46844 0 2.22222C0 1.976 0.193267 1.77778 0.433333 1.77778ZM21.2333 11.5556C20.0417 11.5556 19.0667 12.5556 19.0667 13.7778C19.0667 15 20.0417 16 21.2333 16C22.425 16 23.4 15 23.4 13.7778C23.4 12.5556 22.425 11.5556 21.2333 11.5556ZM21.2333 12.4444C21.9561 12.4444 22.5333 13.0364 22.5333 13.7778C22.5333 14.5191 21.9561 15.1111 21.2333 15.1111C20.5105 15.1111 19.9333 14.5191 19.9333 13.7778C19.9333 13.0364 20.5105 12.4444 21.2333 12.4444ZM9.96667 11.5556C8.775 11.5556 7.8 12.5556 7.8 13.7778C7.8 15 8.775 16 9.96667 16C11.1583 16 12.1333 15 12.1333 13.7778C12.1333 12.5556 11.1583 11.5556 9.96667 11.5556ZM9.96667 12.4444C10.6895 12.4444 11.2667 13.0364 11.2667 13.7778C11.2667 14.5191 10.6895 15.1111 9.96667 15.1111C9.24387 15.1111 8.66667 14.5191 8.66667 13.7778C8.66667 13.0364 9.24387 12.4444 9.96667 12.4444ZM5.63333 0C4.92093 0 4.33333 0.602667 4.33333 1.33333V11.1111C4.33333 11.8418 4.92093 12.4444 5.63333 12.4444H7.36667C7.95253 12.4533 7.95253 11.5467 7.36667 11.5556H5.63333C5.38547 11.5556 5.2 11.3653 5.2 11.1111V1.33333C5.2 1.07911 5.38547 0.888889 5.63333 0.888889H16.9C17.1479 0.888889 17.3333 1.07911 17.3333 1.33333V11.5556H12.5667C11.9947 11.5556 12.0051 12.4533 12.5667 12.4444H18.6333C19.2053 12.4444 19.2001 11.5556 18.6333 11.5556H18.2V3.55556H21.8634L25.1333 8.79644V11.1111C25.1333 11.3653 24.9479 11.5556 24.7 11.5556H23.8333C23.2665 11.5556 23.2665 12.4444 23.8333 12.4444H24.7C25.4124 12.4444 26 11.8418 26 11.1111V8.66667C26 8.58222 25.9766 8.49778 25.9324 8.42667L22.4657 2.87111C22.386 2.744 22.2491 2.66667 22.1 2.66667H18.2V1.33333C18.2 0.602667 17.6124 0 16.9 0H5.63333Z" fill="#201D1B"/>
</svg>
