<svg width="35" height="34" viewBox="0 0 35 34" fill="none" xmlns="http://www.w3.org/2000/svg">
<path fill-rule="evenodd" clip-rule="evenodd" d="M30.0251 20.4378C30.6364 21.4783 31.8524 23.5427 32.145 24.8477C32.4375 26.1528 31.8066 26.6986 30.8238 26.8237C29.841 26.9489 28.5062 26.6533 26.3661 25.1082C24.226 23.563 21.2804 20.7683 19.8025 19.3607C18.3246 17.953 18.3143 17.9326 18.304 17.9352C18.2938 17.9377 18.2835 17.9633 18.6813 18.8699C19.079 19.7766 19.8848 21.5644 20.2877 22.4659C20.6905 23.3675 20.6905 23.3828 20.8009 23.5769C20.9112 23.771 21.1319 24.1439 21.368 24.4886C21.6041 24.8334 21.8556 25.1501 22.1045 25.4438C22.3534 25.7376 22.5997 26.0083 22.8948 26.2841C23.1899 26.5599 23.5338 26.8409 23.8315 27.0733C24.1291 27.3057 24.3806 27.4896 24.6681 27.676C24.9554 27.8624 25.2788 28.0514 25.6214 28.2251C25.9639 28.3988 26.3258 28.5571 26.7299 28.7065C27.1341 28.8559 27.5806 28.9964 27.927 29.0896C28.2734 29.1829 28.5198 29.2288 28.7687 29.2582C29.0176 29.2876 29.2691 29.3003 29.5116 29.3118C29.7541 29.3233 29.9876 29.3335 30.2276 29.3208C30.4675 29.308 30.7138 29.2722 30.973 29.2122C31.2322 29.1522 31.5042 29.0679 31.7505 28.976C31.9969 28.884 32.2176 28.7844 32.4395 28.6554C32.6615 28.5265 32.8848 28.3681 33.0939 28.1408C33.303 27.9135 33.4981 27.6173 33.6328 27.3708C33.7675 27.1243 33.842 26.9277 33.8971 26.6799C33.9523 26.4322 33.9882 26.1334 34.0062 25.8627C34.0241 25.592 34.0241 25.3493 33.9818 25.0658C33.9395 24.7823 33.8548 24.458 33.756 24.1834C33.6572 23.9089 33.5443 23.6841 33.4044 23.4096C33.2646 23.135 33.0978 22.8107 32.9092 22.517C32.7205 22.2233 32.5101 21.9602 32.3048 21.7176C32.0995 21.475 31.8994 21.2527 31.6838 21.0459C31.4683 20.839 31.2373 20.6474 30.9972 20.4611C30.7571 20.2749 30.5079 20.0938 30.2832 19.9369C30.0585 19.78 29.8583 19.6472 29.7246 19.5618C29.5908 19.4764 29.5234 19.4384 29.4814 19.4135C29.4394 19.3886 29.4227 19.3768 29.4134 19.3707C29.4041 19.3646 29.4022 19.3643 29.4046 19.3725C29.407 19.3806 29.4137 19.3973 30.0251 20.4378Z" fill="url(#paint0_linear_418_336)" stroke="url(#paint1_linear_418_336)" stroke-width="0.0561418" stroke-miterlimit="22.9256"/>
<path fill-rule="evenodd" clip-rule="evenodd" d="M4.13173 20.2211C4.12323 21.0777 4.11424 22.8142 4.11009 23.685C4.10593 24.5559 4.10655 24.561 4.10816 24.5632C4.10977 24.5655 4.11235 24.5648 4.13874 24.8065C4.16513 25.0482 4.21533 25.5321 4.7475 26.0958C5.27966 26.6595 6.29378 27.3029 6.80182 27.6278C7.30984 27.9528 7.31175 27.9592 7.31433 27.9608C7.31689 27.9624 7.32011 27.9591 7.17176 28.5754C7.02342 29.1917 6.72354 30.4275 6.5325 31.0744C6.34146 31.7212 6.25929 31.7791 5.92314 32.016C5.58697 32.2529 4.99683 32.6689 4.70128 32.8779C4.40574 33.087 4.40476 33.0893 4.40541 33.0899C4.40604 33.0905 4.4083 33.0896 5.33191 33.0999C6.25549 33.1103 8.10047 33.1321 9.02487 33.1433C9.94927 33.1545 9.95314 33.1551 9.95603 33.1548C9.95891 33.1545 9.96082 33.1532 9.99488 33.1552C10.0289 33.1573 10.0951 33.1628 10.3382 33.1641C10.5813 33.1653 11.0014 33.1625 11.2258 33.1609C11.4503 33.1594 11.479 33.1592 11.4779 33.1325C11.4769 33.1058 11.4459 33.0525 11.412 32.9951C11.3781 32.9377 11.3412 32.8761 11.1753 32.6594C11.0094 32.4428 10.7146 32.071 10.5461 31.8587C10.3777 31.6463 10.3357 31.5934 10.3126 31.5316C10.2895 31.4698 10.2853 31.3991 10.2252 30.392C10.1651 29.3849 10.0491 27.4414 9.99052 26.4686C9.9319 25.4959 9.93061 25.494 9.92999 25.4938C9.92933 25.4937 9.92933 25.4953 9.38717 25.0515C8.84501 24.6077 7.76072 23.7185 6.80063 22.7054C5.84053 21.6924 5.00468 20.5555 4.58555 19.987C4.16641 19.4185 4.16399 19.4183 4.16192 19.4171C4.15982 19.4158 4.15808 19.4134 4.15318 19.4005C4.14827 19.3877 4.14023 19.3645 4.13173 20.2211Z" fill="url(#paint2_linear_418_336)" stroke="url(#paint3_linear_418_336)" stroke-width="0.0561418" stroke-miterlimit="22.9256"/>
<path fill-rule="evenodd" clip-rule="evenodd" d="M23.1598 33.1011C22.2346 33.0975 20.3872 33.0895 19.441 33.0793C18.4947 33.0692 18.4496 33.0569 18.4434 33.0528C18.4373 33.0487 18.4701 33.0528 18.6548 32.7883C18.8395 32.5238 19.176 31.9908 19.3621 31.6961C19.5481 31.4015 19.5836 31.3453 19.5867 31.2653C19.5898 31.1854 19.5604 31.0816 19.3765 30.4314C19.1925 29.7812 18.8539 28.5844 18.6846 27.9861C18.5153 27.3877 18.5153 27.3877 18.5153 27.3893C18.5153 27.3909 18.5153 27.3941 18.1924 27.0573C17.8694 26.7205 17.2235 26.0437 16.5816 25.3712C15.9396 24.6987 15.3018 24.0305 14.9534 23.6049C14.605 23.1793 14.5462 22.9964 14.4905 22.8256C14.4348 22.6548 14.3822 22.4962 14.2694 21.644C14.1567 20.7919 13.9837 19.2461 13.8972 18.4714C13.8107 17.6966 13.8107 17.6928 13.8101 17.6915C13.8094 17.6902 13.8082 17.6915 13.7673 17.5205C13.7265 17.3496 13.646 17.0064 13.6055 16.8351C13.5649 16.6639 13.5643 16.6645 13.5627 16.6639C13.5611 16.6632 13.5586 16.6613 13.5531 17.5756C13.5477 18.4899 13.5393 20.3204 13.5352 21.2366C13.531 22.1528 13.531 22.1547 13.531 22.1577C13.531 22.1608 13.531 22.165 13.2214 21.9091C12.9118 21.6533 12.2926 21.1375 11.9523 20.7105C11.612 20.2836 11.5507 19.9454 11.4809 19.6179C11.4112 19.2904 11.3331 18.9735 11.2803 17.6304C11.2276 16.2872 11.2003 13.9178 11.1866 12.7312C11.1729 11.5446 11.1729 11.5407 11.1736 11.5388C11.1742 11.5369 11.1755 11.5369 11.8884 12.1172C12.6014 12.6976 14.026 13.8583 14.8526 14.5318C15.6792 15.2053 15.9078 15.3916 16.1664 15.6828C16.425 15.974 16.7137 16.3701 18.0068 19.2358C19.2999 22.1014 21.5974 27.4367 22.7615 30.1274C23.9257 32.8181 23.9564 32.8643 23.9743 32.895C23.9923 32.9258 23.9974 32.9412 24.0049 32.9559C24.0124 32.9707 24.0222 32.9849 24.0303 32.9991C24.0385 33.0134 24.0449 33.0279 24.0506 33.0404C24.0563 33.053 24.0612 33.0637 24.0653 33.0709C24.0694 33.078 24.0726 33.0815 24.0753 33.0845C24.078 33.0874 24.0803 33.0898 24.0828 33.0928C24.0852 33.0958 24.088 33.0993 24.0879 33.1015C24.0878 33.1037 24.0849 33.1046 23.1598 33.1011Z" fill="url(#paint4_linear_418_336)" stroke="url(#paint5_linear_418_336)" stroke-width="0.0561418" stroke-miterlimit="22.9256"/>
<path fill-rule="evenodd" clip-rule="evenodd" d="M3.398 18.2245C3.39409 19.0088 3.39153 20.5822 3.39281 21.3765C3.39409 22.1709 3.39923 22.1863 3.39153 22.1825C3.38383 22.1786 3.36332 22.1555 3.06154 21.941C2.75977 21.7264 2.1767 21.3204 1.80574 20.8955C1.43475 20.4705 1.27586 20.0266 1.18439 19.7398C1.0929 19.4529 1.06883 19.3232 1.04883 17.347C1.02881 15.3709 1.01281 11.5484 1.00483 9.61663C0.996831 7.68485 0.996832 7.64378 1.0199 7.4487C1.04297 7.25365 1.08914 6.90459 1.18144 6.50675C1.27372 6.10894 1.41219 5.66233 1.58141 5.25937C1.75062 4.85642 1.9506 4.49709 2.14289 4.1891C2.33517 3.8811 2.51978 3.62442 2.789 3.30617C3.05819 2.98791 3.412 2.60804 3.77608 2.28208C4.14016 1.95611 4.51447 1.68405 4.89897 1.46108C5.28347 1.23811 5.67816 1.06427 6.40374 1.01549C7.12929 0.966717 8.18579 1.04306 8.84735 1.10687C9.5089 1.17071 9.77556 1.22205 10.1357 1.3392C10.4958 1.45635 10.9495 1.63932 11.5263 1.86299C12.1031 2.08665 12.803 2.35102 13.3556 2.56018C13.9081 2.76934 14.3131 2.9233 14.6259 3.08241C14.9387 3.24153 15.1592 3.40579 15.3507 3.5689C15.5422 3.73203 15.7047 3.894 15.8125 4.10412C15.9202 4.31423 15.9733 4.57247 15.9998 5.06285C16.0263 5.55326 16.0263 6.27575 16.0269 6.64279C16.0276 7.00982 16.0288 7.02137 16.0237 7.02586C16.0186 7.03035 16.0071 7.02777 14.4604 7.02842C12.9137 7.02907 9.832 7.03292 8.28407 7.03548C6.73614 7.03806 6.72203 7.03934 6.66105 7.04407C6.60007 7.04882 6.49221 7.05701 6.36776 7.04314C6.24331 7.02928 6.10231 6.99334 5.97154 6.94714C5.84077 6.90095 5.72025 6.84447 5.62925 6.74823C5.53822 6.65198 5.47671 6.51595 5.41648 6.38632C5.35622 6.25671 5.29726 6.13352 5.30824 6.00557C5.31922 5.87764 5.40017 5.74495 5.43743 5.6786C5.47469 5.61227 5.46829 5.61227 5.44608 5.61269C5.42385 5.61314 5.38582 5.61397 5.3901 5.62068C5.39436 5.62741 5.4409 5.63998 5.46269 5.64019C5.48448 5.6404 5.48153 5.62827 5.43066 5.71469C5.37978 5.80111 5.28098 5.98613 5.2371 6.15513C5.19321 6.32415 5.20424 6.47716 5.22649 6.62272C5.24873 6.76827 5.28224 6.90638 5.34129 7.01841C5.40034 7.13044 5.48494 7.21644 5.60802 7.3037C5.73107 7.39096 5.8926 7.47953 6.03426 7.54304C6.17592 7.60657 6.29769 7.64506 6.39962 7.66815C6.50153 7.69127 6.58358 7.69895 8.04339 7.69383C9.5032 7.68871 12.3408 7.67074 13.7628 7.6608C15.1848 7.65085 15.1912 7.64894 15.1941 7.65085C15.197 7.65279 15.1963 7.65856 15.195 7.90397C15.1938 8.14941 15.1919 8.6345 15.1903 8.88152C15.1887 9.12856 15.1874 9.13755 15.1528 9.20811C15.1182 9.2787 15.0502 9.41089 14.9611 9.54306C14.872 9.67525 14.7618 9.80743 14.6509 9.91908C14.54 10.0307 14.4285 10.1218 14.3022 10.1943C14.1759 10.2669 14.0349 10.3208 13.7675 10.3135C13.5001 10.3062 13.1063 10.2378 12.0646 10.2524C11.0229 10.2671 9.33322 10.3648 8.47238 10.4137C7.61152 10.4625 7.57947 10.4625 7.51538 10.4715C7.45128 10.4805 7.35514 10.4984 7.27039 10.5146C7.18565 10.5307 7.11229 10.545 7.04548 10.5695C6.97864 10.594 6.91831 10.6287 6.84298 10.6788C6.76763 10.7289 6.67723 10.7943 6.57051 10.8925C6.46379 10.9906 6.34074 11.1215 6.24011 11.245C6.13947 11.3685 6.06126 11.4847 6.00712 11.5944C5.95296 11.7042 5.92282 11.8075 5.89942 11.9082C5.87602 12.009 5.85937 12.1071 5.84977 12.1966C5.84014 12.2861 5.83756 12.367 5.83805 12.3727C5.83854 12.3785 5.84205 12.3092 5.84558 12.3101C5.84912 12.3111 5.85263 12.3824 5.85491 12.3162C5.85716 12.25 5.85816 12.0464 5.90419 11.9042C5.95019 11.762 6.04119 11.6811 6.11043 11.6195C6.17966 11.5579 6.22708 11.5156 6.27452 11.4777C6.32194 11.4399 6.36939 11.4065 6.42388 11.3731C6.47834 11.3397 6.53988 11.3064 6.58988 11.282C6.63988 11.2576 6.67833 11.2422 6.72803 11.2256C6.7777 11.2089 6.83859 11.1909 6.91136 11.1781C6.9841 11.1653 7.06871 11.1576 7.15988 11.1461C7.25102 11.1347 7.3487 11.1194 7.41679 11.1089C7.48486 11.0984 7.52331 11.0926 8.02028 11.0686C8.51724 11.0446 9.47269 11.0024 9.95026 10.9804C10.4278 10.9584 10.4275 10.9567 10.4286 10.9779C10.4297 10.999 10.4322 11.043 10.4322 11.064C10.4322 11.0851 10.4296 11.083 10.4272 12.5737C10.4248 14.0645 10.4226 17.0478 10.4217 18.5423C10.4207 20.0367 10.421 20.0422 10.4225 20.0465C10.4239 20.0508 10.4265 20.0541 11.4051 21.0698C12.3837 22.0855 14.3383 24.1138 15.3156 25.1292C16.2929 26.1447 16.2929 26.1472 16.2901 26.1485C16.2872 26.1498 16.2814 26.1498 15.7318 26.1514C15.1821 26.153 14.0886 26.1562 13.5361 26.1581C12.9836 26.16 12.972 26.1607 12.8701 26.1424C12.7682 26.1241 12.576 26.0869 12.3542 26.0259C12.1324 25.965 11.8812 25.8802 11.6402 25.7635C11.3991 25.6467 11.1684 25.4978 10.3674 24.864C9.56644 24.2301 8.19519 23.1113 6.9501 21.8089C5.70502 20.5065 4.58608 19.0205 4.02309 18.2711C3.46009 17.5217 3.45302 17.5088 3.4463 17.4975C3.43958 17.4861 3.43316 17.4761 3.42756 17.4684C3.42195 17.4607 3.41716 17.4553 3.41214 17.4502C3.40711 17.445 3.40188 17.4403 3.398 18.2245Z" fill="url(#paint6_linear_418_336)" stroke="url(#paint7_linear_418_336)" stroke-width="0.0561418" stroke-miterlimit="22.9256"/>
<path fill-rule="evenodd" clip-rule="evenodd" d="M7.38246 2.70557C7.38246 2.70557 7.00147 2.94843 7.03257 3.6175C7.06367 4.28658 7.57071 4.77677 8.29207 4.77677C9.01344 4.77677 9.16608 4.45946 9.16283 4.41354C9.15959 4.36762 7.38246 2.70557 7.38246 2.70557Z" fill="#FEFFFF" stroke="url(#paint8_linear_418_336)" stroke-width="0.0561418" stroke-miterlimit="22.9256"/>
<defs>
<linearGradient id="paint0_linear_418_336" x1="26.1592" y1="17.9351" x2="26.1592" y2="29.3267" gradientUnits="userSpaceOnUse">
<stop stop-color="#FF6E05"/>
<stop offset="1" stop-color="#050200"/>
</linearGradient>
<linearGradient id="paint1_linear_418_336" x1="26.1592" y1="17.9351" x2="26.1592" y2="29.3267" gradientUnits="userSpaceOnUse">
<stop stop-color="#FF6E05"/>
<stop offset="0.473958" stop-color="#FF6E05"/>
<stop offset="1"/>
</linearGradient>
<linearGradient id="paint2_linear_418_336" x1="7.79246" y1="19.397" x2="7.79246" y2="33.1644" gradientUnits="userSpaceOnUse">
<stop stop-color="#FF6E05"/>
<stop offset="1" stop-color="#050200"/>
</linearGradient>
<linearGradient id="paint3_linear_418_336" x1="7.79246" y1="19.397" x2="7.79246" y2="33.1644" gradientUnits="userSpaceOnUse">
<stop stop-color="#FF6E05"/>
<stop offset="0.473958" stop-color="#FF6E05"/>
<stop offset="1"/>
</linearGradient>
<linearGradient id="paint4_linear_418_336" x1="17.6306" y1="11.5386" x2="17.6306" y2="33.1034" gradientUnits="userSpaceOnUse">
<stop stop-color="#FF6E05"/>
<stop offset="1" stop-color="#050200"/>
</linearGradient>
<linearGradient id="paint5_linear_418_336" x1="17.6306" y1="11.5386" x2="17.6306" y2="33.1034" gradientUnits="userSpaceOnUse">
<stop stop-color="#FF6E05"/>
<stop offset="0.473958" stop-color="#FF6E05"/>
<stop offset="1"/>
</linearGradient>
<linearGradient id="paint6_linear_418_336" x1="8.64517" y1="1" x2="8.64517" y2="26.159" gradientUnits="userSpaceOnUse">
<stop stop-color="#FF6E05"/>
<stop offset="1" stop-color="#050200"/>
</linearGradient>
<linearGradient id="paint7_linear_418_336" x1="8.64517" y1="1" x2="8.64517" y2="26.159" gradientUnits="userSpaceOnUse">
<stop stop-color="#FF6E05"/>
<stop offset="0.473958" stop-color="#FF6E05"/>
<stop offset="1"/>
</linearGradient>
<linearGradient id="paint8_linear_418_336" x1="8.09682" y1="2.70557" x2="8.09682" y2="4.77677" gradientUnits="userSpaceOnUse">
<stop stop-color="#FF6E05"/>
<stop offset="0.473958" stop-color="#FF6E05"/>
<stop offset="1"/>
</linearGradient>
</defs>
</svg>
