<svg width="17" height="17" viewBox="0 0 17 17" fill="none" xmlns="http://www.w3.org/2000/svg">
<path d="M16.9971 0.238373C16.9761 0.0797008 16.8158 -0.0308397 16.6598 0.00770942L1.75627 3.71018C1.65934 3.73432 1.58304 3.80925 1.55732 3.90592C1.5316 4.0026 1.56039 4.10567 1.63256 4.17486L5.4532 7.8426L4.69509 12.5513C4.66551 12.7356 4.83134 12.8966 5.01266 12.8655L9.97015 12.0055L14.6816 14.6684C14.7234 14.692 14.7698 14.7038 14.8164 14.7038C14.8582 14.7038 14.9 14.6943 14.9385 14.6751C15.0199 14.6346 15.076 14.5562 15.0882 14.466L16.9976 0.310941C17.0009 0.286532 17.0002 0.262233 16.9971 0.238373ZM2.3712 4.12324L15.3251 0.90513L5.82805 7.4419L2.3712 4.12324ZM9.8477 11.4694L5.29774 12.2588L5.98307 8.00149L15.8658 1.19927L9.8477 11.4694ZM14.5989 13.991L10.3975 11.6162L16.2715 1.5921L14.5989 13.991Z" fill="#201D1B"/>
<path d="M3.68613 13.7056L2.39887 15.1358C2.29739 15.2485 2.30649 15.4221 2.41894 15.5235C2.47128 15.5709 2.53703 15.5942 2.60234 15.5942C2.67731 15.5942 2.75202 15.5636 2.80612 15.5034L4.09339 14.0732C4.19487 13.9606 4.18576 13.787 4.07332 13.6855C3.96101 13.5841 3.7875 13.5931 3.68613 13.7056Z" fill="#201D1B"/>
<path d="M1.35663 7.51287L0.0704285 8.94295C-0.0309122 9.05568 -0.0218091 9.22932 0.0907734 9.3308C0.143116 9.378 0.20873 9.40131 0.274069 9.40131C0.34917 9.40131 0.42375 9.37075 0.477985 9.3104L1.76418 7.88032C1.86552 7.76758 1.85642 7.59394 1.74384 7.49246C1.63106 7.39112 1.4581 7.4001 1.35663 7.51287Z" fill="#201D1B"/>
<path d="M10.919 14.7549L9.63278 16.1841C9.53131 16.2967 9.54041 16.4703 9.65285 16.5718C9.7052 16.6191 9.77095 16.6424 9.83626 16.6424C9.91122 16.6424 9.98594 16.6119 10.04 16.5517L11.3262 15.1225C11.4277 15.0099 11.4186 14.8363 11.3062 14.7348C11.1938 14.6335 11.0203 14.6424 10.919 14.7549Z" fill="#201D1B"/>
</svg>
