<svg width="13" height="18" viewBox="0 0 13 18" fill="none" xmlns="http://www.w3.org/2000/svg">
<path d="M7.10389 1C6.90579 1 6.69978 1 6.50169 1C6.30359 1 6.09758 1 5.89948 1C1.93763 1.37575 -0.185923 5.70836 1.692 9.08242L5.89156 16.6434C5.95003 16.751 6.03777 16.8411 6.1453 16.9039C6.25284 16.9668 6.37607 17 6.50169 17C6.6273 17 6.75054 16.9668 6.85807 16.9039C6.9656 16.8411 7.05334 16.751 7.11181 16.6434L11.3114 9.10543C13.1893 5.70836 11.042 1.37575 7.10389 1Z" stroke="black" stroke-linecap="round" stroke-linejoin="bevel"/>
<path d="M8.48236 6.29111C8.48236 5.23233 7.59547 4.37402 6.50143 4.37402C5.4074 4.37402 4.52051 5.23233 4.52051 6.29111C4.52051 7.34988 5.4074 8.20819 6.50143 8.20819C7.59547 8.20819 8.48236 7.34988 8.48236 6.29111Z" stroke="black" stroke-linecap="round" stroke-linejoin="bevel"/>
</svg>
